<svg width="256" height="256" fill="none" xmlns="http://www.w3.org/2000/svg"><path fill="#223D87" d="M0 0h256v256H0z"/><path fill="#223D87" d="M0 0h256v256H0z"/><path d="M185.831 120.4c0-.536-2.225-53.4-57.824-53.4-55.6 0-57.838 52.864-57.838 53.308-2.238 39.626 18.464 56.197 21.365 58.223 1.848 1.816 12.244 10.534 36.433 10.534s34.586-8.718 36.538-10.534c2.862-2.078 23.564-18.597 21.326-58.131zm-25.62 52.459l-.573.497a24.172 24.172 0 01-7.221 4.338c-5.023 2.183-12.908 4.313-24.41 4.313-23.018 0-31.62-8.625-31.62-8.625l-.598-.523c-.208-.131-20.663-14.481-18.516-52.276a50.19 50.19 0 011.705-10.455c7.885 3.463 54.65 22.112 67.297-17.082 0 0 5.504 26.348 30.695 16.86a51.942 51.942 0 011.757 10.899c2.121 37.351-17.683 51.518-18.516 52.054z" fill="#fff"/><path d="M140.081 159.607c-2.746 10.716-11.359 10.351-11.359 10.351s-8.666.365-11.412-10.351c0 0-.312-.889.794-.85H139.3c1.132 0 .781.85.781.85zM162.058 134.24l-3.331 3.333c-5.205-5.228-10.24-.562-10.8 0l-3.318-3.346c3.006-3.032 10.553-6.927 17.449.013zM112.613 134.24l-3.331 3.333c-5.205-5.228-10.253-.562-10.813 0l-3.33-3.346c3.03-3.032 10.565-6.927 17.474.013z" fill="#fff"/></svg>