<svg width="216" height="216" fill="none"><rect width="216" height="216" rx="30" fill="#fff"/><path fill="#223D87" d="M0 0h216v216H0z"/><path d="M165.8 100.4c0-.5-2.2-53.4-57.8-53.4-55.6 0-57.8 52.9-57.8 53.3-2.3 39.6 18.4 56.2 21.3 58.2 1.9 1.8 12.3 10.6 36.5 10.6s34.6-8.8 36.5-10.6c2.9-2 23.6-18.6 21.3-58.1zm-25.6 52.5l-.6.5a24.2 24.2 0 01-7.2 4.3c-5 2.2-12.9 4.3-24.4 4.3-23 0-31.6-8.6-31.6-8.6l-.6-.5c-.2-.2-20.7-14.5-18.5-52.3.2-3.6.7-7 1.7-10.5 7.9 3.5 54.6 22.1 67.3-17 0 0 5.5 26.3 30.7 16.8a52 52 0 011.7 11c2.1 37.3-17.7 51.4-18.5 52z" fill="#fff"/><path d="M120 139.6c-2.7 10.7-11.3 10.4-11.3 10.4s-8.6.3-11.4-10.4c0 0-.3-.9.8-.8h21.2c1.1 0 .8.8.8.8zM142 114.2l-3.3 3.4c-5.2-5.3-10.2-.6-10.8 0l-3.3-3.4c3-3 10.6-6.9 17.5 0zM92.6 114.2l-3.3 3.4c-5.2-5.3-10.3-.6-10.8 0l-3.4-3.4c3-3 10.6-6.9 17.5 0z" fill="#fff"/></svg>
