<svg width="24" height="24" viewBox="0 0 24 24" fill="none" xmlns="http://www.w3.org/2000/svg">
<path d="M12.0001 17.2752L7.85008 19.7752C7.66675 19.8919 7.47508 19.9419 7.27508 19.9252C7.07508 19.9085 6.90008 19.8419 6.75008 19.7252C6.60008 19.6085 6.48342 19.4629 6.40008 19.2882C6.31675 19.1135 6.30008 18.9175 6.35008 18.7002L7.45008 13.9752L3.77508 10.8002C3.60842 10.6502 3.50442 10.4792 3.46308 10.2872C3.42175 10.0952 3.43408 9.90786 3.50008 9.7252C3.56608 9.54253 3.66608 9.39253 3.80008 9.2752C3.93408 9.15786 4.11742 9.08286 4.35008 9.0502L9.20008 8.6252L11.0751 4.1752C11.1584 3.9752 11.2878 3.8252 11.4631 3.7252C11.6384 3.6252 11.8174 3.5752 12.0001 3.5752C12.1828 3.5752 12.3618 3.6252 12.5371 3.7252C12.7124 3.8252 12.8418 3.9752 12.9251 4.1752L14.8001 8.6252L19.6501 9.0502C19.8834 9.08353 20.0668 9.15853 20.2001 9.2752C20.3334 9.39186 20.4334 9.54186 20.5001 9.7252C20.5668 9.90853 20.5794 10.0962 20.5381 10.2882C20.4968 10.4802 20.3924 10.6509 20.2251 10.8002L16.5501 13.9752L17.6501 18.7002C17.7001 18.9169 17.6834 19.1129 17.6001 19.2882C17.5168 19.4635 17.4001 19.6092 17.2501 19.7252C17.1001 19.8412 16.9251 19.9079 16.7251 19.9252C16.5251 19.9425 16.3334 19.8925 16.1501 19.7752L12.0001 17.2752Z" fill="black"/>
</svg>
