<svg width="24" height="24" viewBox="0 0 24 24" fill="none" xmlns="http://www.w3.org/2000/svg">
<path fill-rule="evenodd" clip-rule="evenodd" d="M11.9285 2.14182C11.9217 2.14586 11.9147 2.14982 11.9077 2.15371L3.55711 6.79121C3.55703 6.79125 3.55719 6.79117 3.55711 6.79121C3.5399 6.80083 3.52533 6.81499 3.51534 6.83199C3.50529 6.84907 3.5 6.86851 3.5 6.88832V16.0391C3.50022 16.2568 3.5586 16.4705 3.6691 16.6581C3.77966 16.8458 3.93838 17.0006 4.12883 17.1063L11.9066 21.4286C12.0881 21.5294 12.2924 21.5823 12.5 21.5823C12.7076 21.5823 12.9119 21.5294 13.0934 21.4286L20.8709 17.1065C21.0615 17.0007 21.2205 16.8457 21.3311 16.6579C21.4416 16.4701 21.4999 16.2562 21.5 16.0384C21.5 16.0383 21.5 16.0384 21.5 16.0384V6.88836C21.5 6.86856 21.4947 6.84907 21.4847 6.83199C21.4746 6.81493 21.4602 6.80087 21.4429 6.79124C21.4429 6.79123 21.443 6.79125 21.4429 6.79124L13.0934 2.15371C13.0934 2.1537 13.0934 2.15372 13.0934 2.15371C12.9119 2.05292 12.7076 2 12.5 2C12.3007 2 12.1045 2.04874 11.9285 2.14182ZM10.907 0.421732C10.9164 0.416094 10.926 0.410595 10.9356 0.405237C11.4142 0.139465 11.9526 0 12.5 0C13.0474 0 13.5858 0.139465 14.0644 0.405237L22.4144 5.04305C22.7434 5.22596 23.0179 5.49372 23.2086 5.81812C23.3994 6.14252 23.5 6.51202 23.5 6.88836C23.5 6.88838 23.5 6.88835 23.5 6.88836V16.0384C23.4999 16.613 23.3461 17.1773 23.0546 17.6725C22.7631 18.1676 22.3445 18.5759 21.8422 18.8548L14.0646 23.1769C13.5861 23.4427 13.0474 23.5823 12.5 23.5823C11.9526 23.5823 11.4142 23.4428 10.9356 23.177L3.15783 18.8548C2.65574 18.576 2.2373 18.168 1.94582 17.6732C1.65434 17.1783 1.50042 16.6145 1.5 16.0402L1.5 6.8884C1.5 6.88839 1.5 6.88842 1.5 6.8884C1.49999 6.51206 1.60059 6.14252 1.79137 5.81812C1.98215 5.49371 2.25619 5.2262 2.58511 5.04329L10.907 0.421732Z" fill="black"/>
<path fill-rule="evenodd" clip-rule="evenodd" d="M6.84438 3.09303C7.04554 2.73094 7.50214 2.60048 7.86423 2.80164L17.8642 8.3572C18.1023 8.48948 18.25 8.74044 18.25 9.01282V12.9017C18.25 13.3159 17.9142 13.6517 17.5 13.6517C17.0858 13.6517 16.75 13.3159 16.75 12.9017V9.45412L7.13576 4.11288C6.77367 3.91172 6.64322 3.45511 6.84438 3.09303ZM5.1782 11.7899C5.37985 11.4281 5.83663 11.2983 6.19845 11.4999L9.53178 13.3577C9.8936 13.5593 10.0234 14.0161 9.82178 14.3779C9.62013 14.7398 9.16335 14.8696 8.80154 14.6679L5.4682 12.8102C5.10639 12.6085 4.97655 12.1517 5.1782 11.7899Z" fill="black"/>
<path fill-rule="evenodd" clip-rule="evenodd" d="M11.75 12.2319L2.13574 6.89064L2.86421 5.57941L12.5 10.9326L22.1357 5.57941L22.8642 6.89064L13.25 12.2319V22.3461H11.75V12.2319Z" fill="black"/>
</svg>
