<svg width="24" height="24" viewBox="0 0 24 24" fill="none" xmlns="http://www.w3.org/2000/svg">
<path d="M6.66673 22.7679H17.3339C19.4133 22.7679 20.4479 21.7131 20.4479 19.6239V10.5034C20.4479 9.20743 20.3073 8.64514 19.5037 7.82143L13.9589 2.18657C13.196 1.40271 12.5729 1.23214 11.438 1.23214H6.66673C4.59759 1.23214 3.55273 2.29671 3.55273 4.38643V19.6239C3.55273 21.723 4.59759 22.7679 6.66673 22.7679ZM6.74688 21.1509C5.71231 21.1509 5.16973 20.598 5.16973 19.5939V4.41643C5.16973 3.42214 5.71231 2.84914 6.75716 2.84914H11.2169V8.68543C11.2169 9.951 11.8597 10.5737 13.1052 10.5737H18.8309V19.5939C18.8309 20.598 18.2982 21.1509 17.2537 21.1509H6.74688ZM13.286 9.05657C12.8943 9.05657 12.7332 8.89629 12.7332 8.49429V3.16071L18.5189 9.057L13.286 9.05657Z" fill="black"/>
</svg>
