<svg width="24" height="24" viewBox="0 0 24 24" fill="none" xmlns="http://www.w3.org/2000/svg">
<path fill-rule="evenodd" clip-rule="evenodd" d="M9.4771 1.74639C9.52887 1.72503 9.58434 1.71412 9.64034 1.71429L9.64285 1.71429H13.9286L13.9311 1.71429C13.9871 1.71412 14.0426 1.72503 14.0943 1.74639C14.1461 1.76774 14.1931 1.79912 14.2327 1.83871C14.2723 1.87831 14.3037 1.92534 14.325 1.97711C14.3464 2.02888 14.3573 2.08435 14.3571 2.14035L14.3571 2.14286V3.42857H9.21428V2.14286L9.21428 2.14035C9.21411 2.08435 9.22502 2.02888 9.24638 1.97711C9.26773 1.92534 9.29911 1.87831 9.3387 1.83871C9.3783 1.79912 9.42533 1.76774 9.4771 1.74639ZM8.35455 5.14286C8.35542 5.14286 8.35628 5.14286 8.35714 5.14286C8.358 5.14286 8.35886 5.14286 8.35972 5.14286H15.2117C15.2126 5.14286 15.2134 5.14286 15.2143 5.14286C15.2151 5.14286 15.216 5.14286 15.2169 5.14286H18.5876L17.573 21.3763C17.5368 21.9687 17.1555 22.2857 16.7143 22.2857H6.85714C6.4115 22.2857 6.02851 21.9614 5.99887 21.3846L5.99833 21.3751L4.98382 5.14286H8.35455ZM7.5 3.42857V2.14396C7.49936 1.86247 7.55428 1.58363 7.66162 1.3234C7.76915 1.06274 7.92714 0.82591 8.12652 0.62653C8.3259 0.42715 8.56273 0.269155 8.82339 0.161633C9.08362 0.0542908 9.36246 -0.000632814 9.64395 5.50048e-06H13.9275C14.209 -0.000632814 14.4878 0.054291 14.748 0.161633C15.0087 0.269154 15.2455 0.427148 15.4449 0.62653C15.6443 0.825912 15.8023 1.06274 15.9098 1.3234C16.0172 1.58368 16.0721 1.86259 16.0714 2.14413V3.42857H19.492H19.5063H21.2143C21.6877 3.42857 22.0714 3.81233 22.0714 4.28572C22.0714 4.7591 21.6877 5.14286 21.2143 5.14286H20.3052L19.2841 21.4809L19.2841 21.481C19.1992 22.8696 18.1662 24 16.7143 24H6.85714C5.41883 24 4.36158 22.8795 4.28711 21.4777L3.26619 5.14286H2.35714C1.88376 5.14286 1.5 4.7591 1.5 4.28572C1.5 3.81233 1.88376 3.42857 2.35714 3.42857H4.06511H4.07939H7.5ZM8.78516 7.6837C8.76827 7.21061 8.37106 6.8408 7.89797 6.85769C7.42489 6.87459 7.05508 7.2718 7.07197 7.74488L7.50054 19.7449C7.51744 20.218 7.91465 20.5878 8.38773 20.5709C8.86082 20.554 9.23063 20.1568 9.21374 19.6837L8.78516 7.6837ZM16.4994 7.74488C16.5163 7.2718 16.1465 6.87459 15.6734 6.85769C15.2004 6.8408 14.8032 7.21061 14.7863 7.6837L14.3577 19.6837C14.3408 20.1568 14.7106 20.554 15.1837 20.5709C15.6568 20.5878 16.054 20.218 16.0709 19.7449L16.4994 7.74488ZM12.6429 7.71429C12.6429 7.2409 12.2591 6.85715 11.7857 6.85715C11.3123 6.85715 10.9286 7.2409 10.9286 7.71429V19.7143C10.9286 20.1877 11.3123 20.5714 11.7857 20.5714C12.2591 20.5714 12.6429 20.1877 12.6429 19.7143V7.71429Z" fill="black"/>
</svg>
