<svg width="24" height="24" viewBox="0 0 24 24" fill="none" xmlns="http://www.w3.org/2000/svg">
<path fill-rule="evenodd" clip-rule="evenodd" d="M12.5 2.45781C13.1104 2.45781 13.6053 2.95266 13.6053 3.56308L13.6053 10.7942L20.8364 10.7942C21.4468 10.7942 21.9417 11.2891 21.9417 11.8995C21.9417 12.5099 21.4468 13.0048 20.8364 13.0048L13.6053 13.0048L13.6053 20.2359C13.6053 20.8463 13.1104 21.3412 12.5 21.3412C11.8896 21.3412 11.3947 20.8463 11.3947 20.2359L11.3947 13.0048L4.16358 13.0048C3.55316 13.0048 3.05832 12.5099 3.05832 11.8995C3.05832 11.2891 3.55316 10.7942 4.16358 10.7942L11.3947 10.7942L11.3947 3.56308C11.3947 2.95266 11.8896 2.45781 12.5 2.45781Z" fill="#2D3788"/>
</svg>
