<svg width="376" height="150" viewBox="0 0 376 150" fill="none" xmlns="http://www.w3.org/2000/svg">
<g clip-path="url(#clip0_29_29)">
<path d="M366.566 0.986755H311.29C306.47 0.986755 302.562 4.8943 302.562 9.7145V64.9902C302.562 69.8105 306.47 73.718 311.29 73.718H366.566C371.386 73.718 375.293 69.8105 375.293 64.9902V9.7145C375.293 4.8943 371.386 0.986755 366.566 0.986755Z" fill="#2D3788"/>
<path d="M324.345 31.7812C324.345 31.7812 341.204 39.8616 345.473 26.69C345.473 26.69 347.204 34.9014 355.11 31.7812C354.974 30.1913 354.647 28.6235 354.136 27.1118C354.136 27.1118 347.932 19.8387 341.11 19.766C334.287 19.6933 324.927 23.0534 324.345 31.7521" fill="white"/>
<path d="M340.04 46.9093H343.328C343.662 46.9093 343.568 47.1784 343.568 47.1784C342.717 50.4731 340.04 50.3567 340.04 50.3567C340.04 50.3567 337.364 50.4731 336.52 47.1784C336.52 47.1784 336.418 46.902 336.76 46.9093H340.04Z" fill="white"/>
<path d="M339.837 55.1352C347.612 55.1352 350.397 52.1532 350.397 52.1532C350.397 52.1532 357.292 47.4838 356.594 35.1486C356.594 35.1486 356.143 19.795 339.866 19.795C323.588 19.795 323.138 35.1486 323.138 35.1486C322.41 47.5129 329.334 52.1532 329.334 52.1532C329.334 52.1532 332.12 55.1352 339.895 55.1352H339.837Z" stroke="white" stroke-width="3" stroke-miterlimit="10"/>
<path d="M330.2 39.8616C330.2 39.8616 332.382 37.6797 334.564 39.8616" stroke="white" stroke-width="2" stroke-miterlimit="10" stroke-linecap="round"/>
<path d="M345.473 39.8616C345.473 39.8616 347.655 37.6797 349.837 39.8616" stroke="white" stroke-width="2" stroke-miterlimit="10" stroke-linecap="round"/>
<path d="M64.0035 0.986755H8.72775C3.90755 0.986755 0 4.8943 0 9.7145V64.9902C0 69.8105 3.90755 73.718 8.72775 73.718H64.0035C68.8237 73.718 72.7312 69.8105 72.7312 64.9902V9.7145C72.7312 4.8943 68.8237 0.986755 64.0035 0.986755Z" fill="#2D3788"/>
<path d="M22.5466 16.464C22.5466 16.3064 22.5777 16.1503 22.638 16.0047C22.6983 15.8591 22.7867 15.7268 22.8981 15.6154C23.0096 15.5039 23.1419 15.4155 23.2875 15.3552C23.4331 15.2949 23.5891 15.2639 23.7467 15.2639H38.9621C40.8102 15.2601 42.641 15.6203 44.35 16.324C46.0589 17.0278 47.6125 18.0612 48.9221 19.3653C50.2316 20.6695 51.2715 22.2188 51.9822 23.9248C52.693 25.6308 53.0608 27.4601 53.0647 29.3083C53.0685 31.1564 52.7082 32.9873 52.0045 34.6962C51.3008 36.4051 50.2673 37.9587 48.9632 39.2683C47.6591 40.5778 46.1098 41.6177 44.4037 42.3285C42.6977 43.0393 40.8684 43.4071 39.0203 43.4109H32.3944V58.2481C32.3836 58.5629 32.2537 58.8618 32.0309 59.0846C31.8082 59.3073 31.5092 59.4373 31.1944 59.4481H23.7467C23.4284 59.4481 23.1232 59.3217 22.8981 59.0966C22.6731 58.8716 22.5466 58.5663 22.5466 58.2481V16.464ZM38.3948 34.1958C39.0513 34.1997 39.7021 34.073 40.3093 33.8231C40.9164 33.5732 41.4679 33.2051 41.9315 32.7401C42.3951 32.2752 42.7616 31.7227 43.0097 31.1148C43.2579 30.5069 43.3827 29.8557 43.3769 29.1992C43.3572 28.5659 43.2125 27.9427 42.9511 27.3655C42.6897 26.7882 42.3168 26.2684 41.8537 25.8358C41.3907 25.4032 40.8468 25.0664 40.2532 24.8448C39.6596 24.6232 39.028 24.5211 38.3948 24.5444H32.3944V34.1958H38.3948Z" fill="white"/>
<path d="M139.644 0.986755H84.3683C79.548 0.986755 75.6405 4.8943 75.6405 9.7145V64.9902C75.6405 69.8105 79.548 73.718 84.3683 73.718H139.644C144.464 73.718 148.372 69.8105 148.372 64.9902V9.7145C148.372 4.8943 144.464 0.986755 139.644 0.986755Z" fill="#2D3788"/>
<path d="M100.398 16.464C100.397 16.3061 100.428 16.1497 100.488 16.0036C100.548 15.8576 100.636 15.7249 100.748 15.6133C100.859 15.5016 100.992 15.4133 101.138 15.3533C101.284 15.2934 101.44 15.263 101.598 15.2639H109.111C109.426 15.2748 109.725 15.4047 109.948 15.6275C110.171 15.8502 110.301 16.1492 110.311 16.464V50.1677H125.33C125.649 50.1677 125.954 50.2941 126.179 50.5192C126.404 50.7442 126.531 51.0495 126.531 51.3677V58.2481C126.531 58.5664 126.404 58.8716 126.179 59.0967C125.954 59.3217 125.649 59.4482 125.33 59.4482H101.598C101.44 59.4491 101.284 59.4188 101.138 59.3588C100.992 59.2988 100.859 59.2105 100.748 59.0988C100.636 58.9872 100.548 58.8545 100.488 58.7085C100.428 58.5625 100.397 58.406 100.398 58.2481V16.464Z" fill="white"/>
<path d="M215.285 0.986755H160.009C155.189 0.986755 151.281 4.8943 151.281 9.7145V64.9902C151.281 69.8105 155.189 73.718 160.009 73.718H215.285C220.105 73.718 224.012 69.8105 224.012 64.9902V9.7145C224.012 4.8943 220.105 0.986755 215.285 0.986755Z" fill="#2D3788"/>
<path d="M166.504 57.768L186.265 15.293C186.362 15.0878 186.513 14.9122 186.701 14.7844C186.889 14.6566 187.107 14.5811 187.334 14.5657H187.967C188.193 14.5811 188.412 14.6566 188.6 14.7844C188.788 14.9122 188.938 15.0878 189.036 15.293L208.797 57.768C208.891 57.9453 208.936 58.1447 208.927 58.3454C208.918 58.5461 208.856 58.7407 208.746 58.9088C208.635 59.0769 208.482 59.2122 208.302 59.3007C208.122 59.3892 207.921 59.4276 207.72 59.4118H200.716C199.582 59.4118 199.073 59.0336 198.534 57.8335L196.265 52.8441H179.057L176.788 57.899C176.614 58.3571 176.3 58.7492 175.892 59.0205C175.484 59.2918 175.001 59.4286 174.511 59.4118H167.573C167.372 59.4276 167.172 59.3892 166.991 59.3007C166.811 59.2122 166.658 59.0769 166.548 58.9088C166.437 58.7407 166.375 58.5461 166.366 58.3454C166.357 58.1447 166.402 57.9453 166.496 57.768M192.44 44.2618L187.647 33.8467H187.581L182.846 44.2618H192.44Z" fill="white"/>
<path d="M290.925 0.986755H235.649C230.829 0.986755 226.922 4.8943 226.922 9.7145V64.9902C226.922 69.8105 230.829 73.718 235.649 73.718H290.925C295.745 73.718 299.653 69.8105 299.653 64.9902V9.7145C299.653 4.8943 295.745 0.986755 290.925 0.986755Z" fill="#2D3788"/>
<path d="M258.239 38.1742L244.29 17.0822C244.167 16.9031 244.096 16.6935 244.085 16.4765C244.075 16.2596 244.125 16.044 244.23 15.8539C244.334 15.6637 244.49 15.5065 244.679 15.3997C244.868 15.293 245.084 15.2409 245.301 15.2494H253.505C253.707 15.2547 253.904 15.3092 254.08 15.408C254.256 15.5069 254.406 15.6471 254.516 15.8167L263.287 28.7556L272.066 15.8167C272.169 15.641 272.317 15.4959 272.494 15.3962C272.672 15.2965 272.873 15.2458 273.077 15.2494H281.281C281.498 15.2409 281.713 15.293 281.902 15.3997C282.091 15.5065 282.247 15.6637 282.352 15.8539C282.456 16.044 282.506 16.2596 282.496 16.4765C282.485 16.6935 282.415 16.9031 282.292 17.0822L268.153 38.1161V58.2481C268.142 58.5629 268.012 58.8619 267.789 59.0846C267.566 59.3074 267.267 59.4373 266.953 59.4481H259.439C259.121 59.4481 258.816 59.3217 258.591 59.0967C258.366 58.8716 258.239 58.5664 258.239 58.2481V38.1742Z" fill="white"/>
<path d="M64.0035 76.6273H8.72775C3.90755 76.6273 0 80.5348 0 85.355V140.631C0 145.451 3.90755 149.359 8.72775 149.359H64.0035C68.8237 149.359 72.7312 145.451 72.7312 140.631V85.355C72.7312 80.5348 68.8237 76.6273 64.0035 76.6273Z" fill="#2D3788"/>
<path d="M22.5466 92.1045C22.5466 91.9469 22.5777 91.7908 22.638 91.6452C22.6983 91.4996 22.7867 91.3673 22.8981 91.2559C23.0096 91.1444 23.1419 91.056 23.2875 90.9957C23.4331 90.9354 23.5891 90.9044 23.7467 90.9044H38.9621C40.8102 90.9006 42.641 91.2608 44.35 91.9645C46.0589 92.6683 47.6125 93.7017 48.9221 95.0059C50.2316 96.31 51.2715 97.8593 51.9822 99.5653C52.693 101.271 53.0608 103.101 53.0647 104.949C53.0685 106.797 52.7082 108.628 52.0045 110.337C51.3008 112.046 50.2673 113.599 48.9632 114.909C47.6591 116.218 46.1098 117.258 44.4037 117.969C42.6977 118.68 40.8684 119.048 39.0203 119.051H32.3944V133.889C32.3836 134.203 32.2537 134.502 32.0309 134.725C31.8082 134.948 31.5092 135.078 31.1944 135.089H23.7467C23.4284 135.089 23.1232 134.962 22.8981 134.737C22.6731 134.512 22.5466 134.207 22.5466 133.889V92.1045ZM38.3948 109.836C39.0513 109.84 39.7021 109.714 40.3093 109.464C40.9164 109.214 41.4679 108.846 41.9315 108.381C42.3951 107.916 42.7616 107.363 43.0097 106.755C43.2579 106.147 43.3827 105.496 43.3769 104.84C43.359 104.205 43.2157 103.58 42.9552 103.001C42.6946 102.423 42.322 101.901 41.8588 101.467C41.3956 101.033 40.851 100.695 40.2565 100.472C39.6619 100.25 39.0292 100.147 38.3948 100.17H32.3944V109.822L38.3948 109.836Z" fill="white"/>
<path d="M139.644 76.6273H84.3683C79.548 76.6273 75.6405 80.5348 75.6405 85.355V140.631C75.6405 145.451 79.548 149.359 84.3683 149.359H139.644C144.464 149.359 148.372 145.451 148.372 140.631V85.355C148.372 80.5348 144.464 76.6273 139.644 76.6273Z" fill="#2D3788"/>
<path d="M96.5507 92.1045C96.5497 91.9472 96.5799 91.7913 96.6394 91.6458C96.6989 91.5002 96.7866 91.3679 96.8975 91.2563C97.0083 91.1448 97.1401 91.0563 97.2853 90.9959C97.4305 90.9355 97.5862 90.9044 97.7435 90.9044H116.654C120.285 90.8947 123.772 92.3244 126.351 94.8804C128.93 97.4365 130.391 100.91 130.414 104.542C130.414 110.36 126.567 115.015 121.076 117.226L129.723 133.227C129.839 133.413 129.902 133.627 129.905 133.845C129.907 134.064 129.85 134.28 129.739 134.469C129.629 134.657 129.468 134.812 129.276 134.916C129.083 135.021 128.866 135.07 128.647 135.06H120.217C120.014 135.062 119.814 135.01 119.636 134.911C119.459 134.811 119.311 134.667 119.206 134.492L110.813 117.764H106.449V133.859C106.439 134.174 106.309 134.473 106.086 134.696C105.863 134.919 105.564 135.049 105.249 135.06H97.7435C97.5862 135.06 97.4305 135.028 97.2853 134.968C97.1401 134.908 97.0083 134.819 96.8975 134.708C96.7866 134.596 96.6989 134.464 96.6394 134.318C96.5799 134.173 96.5497 134.017 96.5507 133.859V92.1045ZM115.781 109.778C117.073 109.704 118.288 109.141 119.179 108.204C120.071 107.266 120.572 106.024 120.581 104.731C120.572 103.46 120.063 102.245 119.165 101.347C118.266 100.449 117.051 99.9399 115.781 99.9304H106.457V109.778H115.781Z" fill="white"/>
<path d="M215.285 76.6273H160.009C155.189 76.6273 151.281 80.5348 151.281 85.355V140.631C151.281 145.451 155.189 149.359 160.009 149.359H215.285C220.105 149.359 224.012 145.451 224.012 140.631V85.355C224.012 80.5348 220.105 76.6273 215.285 76.6273Z" fill="#2D3788"/>
<path d="M173.384 92.1045C173.384 91.7862 173.51 91.481 173.736 91.2559C173.961 91.0309 174.266 90.9044 174.584 90.9044H200.716C201.035 90.9044 201.34 91.0309 201.565 91.2559C201.79 91.481 201.916 91.7862 201.916 92.1045V99.0212C201.916 99.1788 201.885 99.3349 201.825 99.4805C201.765 99.6261 201.676 99.7584 201.565 99.8698C201.454 99.9812 201.321 100.07 201.176 100.13C201.03 100.19 200.874 100.221 200.716 100.221H183.261V108.047H197.654C197.969 108.058 198.267 108.188 198.488 108.411C198.71 108.634 198.838 108.933 198.847 109.247V116.128C198.847 116.445 198.722 116.749 198.498 116.974C198.275 117.198 197.971 117.326 197.654 117.328H183.232V125.845H200.687C201.006 125.845 201.311 125.971 201.536 126.196C201.761 126.421 201.887 126.726 201.887 127.045V133.925C201.887 134.243 201.761 134.548 201.536 134.774C201.311 134.999 201.006 135.125 200.687 135.125H174.584C174.266 135.125 173.961 134.999 173.736 134.774C173.51 134.548 173.384 134.243 173.384 133.925V92.1045Z" fill="white"/>
<path d="M290.925 76.6273H235.649C230.829 76.6273 226.922 80.5348 226.922 85.355V140.631C226.922 145.451 230.829 149.359 235.649 149.359H290.925C295.745 149.359 299.653 145.451 299.653 140.631V85.355C299.653 80.5348 295.745 76.6273 290.925 76.6273Z" fill="#2D3788"/>
<path d="M249.468 129.088L252.436 123.852C252.684 123.535 253.04 123.321 253.436 123.251C253.832 123.181 254.24 123.261 254.581 123.473C254.836 123.597 259.382 126.943 263.542 126.943C266.066 126.943 267.906 125.364 267.906 123.161C267.906 120.506 265.724 118.484 261.403 116.782C255.978 114.637 249.163 110.411 249.163 102.832C249.163 96.5847 254.021 90.2716 263.709 90.2716C270.255 90.2716 275.346 93.6173 277.215 95.0064C277.979 95.4501 277.848 96.5847 277.601 97.0284L274.379 101.887C273.935 102.578 272.8 103.152 272.233 102.709C271.666 102.396 267.055 98.9194 263.207 98.9194C260.938 98.9194 259.229 100.439 259.229 102.141C259.229 104.476 261.127 106.243 266.109 108.265C271.091 110.287 278.859 114.084 278.859 122.652C278.859 129.154 273.244 135.743 263.964 135.743C255.76 135.743 251.214 132.332 249.766 130.877C249.134 130.252 248.945 129.997 249.446 129.11" fill="white"/>
<path d="M366.566 76.6273H311.29C306.47 76.6273 302.562 80.5348 302.562 85.355V140.631C302.562 145.451 306.47 149.359 311.29 149.359H366.566C371.386 149.359 375.293 145.451 375.293 140.631V85.355C375.293 80.5348 371.386 76.6273 366.566 76.6273Z" fill="#2D3788"/>
<path d="M325.109 129.088L328.076 123.852C328.324 123.535 328.68 123.321 329.076 123.251C329.472 123.181 329.88 123.261 330.222 123.473C330.476 123.597 335.022 126.943 339.182 126.943C341.706 126.943 343.546 125.364 343.546 123.161C343.546 120.506 341.364 118.484 337.044 116.782C331.618 114.637 324.803 110.411 324.803 102.832C324.803 96.5847 329.662 90.2716 339.349 90.2716C345.895 90.2716 350.986 93.6173 352.856 95.0064C353.583 95.4501 353.488 96.5847 353.241 97.0284L350.019 101.887C349.575 102.578 348.441 103.152 347.837 102.709C347.27 102.396 342.659 98.9194 338.811 98.9194C336.542 98.9194 334.833 100.439 334.833 102.141C334.833 104.476 336.731 106.243 341.713 108.265C346.695 110.287 354.463 114.084 354.463 122.652C354.463 129.154 348.848 135.743 339.568 135.743C331.364 135.743 326.818 132.332 325.37 130.877C324.738 130.252 324.549 129.997 325.05 129.11" fill="white"/>
</g>
<defs>
<clipPath id="clip0_29_29">
<rect width="376" height="150" fill="white"/>
</clipPath>
</defs>
</svg>
