<svg width="400" height="173" viewBox="0 0 400 173" fill="none" xmlns="http://www.w3.org/2000/svg">
<g clip-path="url(#clip0_27_2)">
<path d="M366.566 23.9868H311.29C306.47 23.9868 302.562 27.8943 302.562 32.7145V87.9902C302.562 92.8105 306.47 96.718 311.29 96.718H366.566C371.386 96.718 375.293 92.8105 375.293 87.9902V32.7145C375.293 27.8943 371.386 23.9868 366.566 23.9868Z" fill="#2D3788"/>
<path d="M324.345 54.7812C324.345 54.7812 341.204 62.8616 345.473 49.69C345.473 49.69 347.204 57.9014 355.11 54.7812C354.974 53.1913 354.647 51.6235 354.136 50.1118C354.136 50.1118 347.932 42.8387 341.11 42.766C334.287 42.6933 324.927 46.0534 324.345 54.7521" fill="white"/>
<path d="M340.04 69.9093H343.328C343.662 69.9093 343.568 70.1784 343.568 70.1784C342.717 73.4731 340.04 73.3567 340.04 73.3567C340.04 73.3567 337.364 73.4731 336.52 70.1784C336.52 70.1784 336.418 69.902 336.76 69.9093H340.04Z" fill="white"/>
<path d="M339.837 78.1352C347.612 78.1352 350.397 75.1532 350.397 75.1532C350.397 75.1532 357.292 70.4838 356.594 58.1486C356.594 58.1486 356.143 42.795 339.866 42.795C323.589 42.795 323.138 58.1486 323.138 58.1486C322.41 70.5129 329.334 75.1532 329.334 75.1532C329.334 75.1532 332.12 78.1352 339.895 78.1352H339.837Z" stroke="white" stroke-width="3" stroke-miterlimit="10"/>
<path d="M330.2 62.8616C330.2 62.8616 332.382 60.6797 334.564 62.8616" stroke="white" stroke-width="2" stroke-miterlimit="10" stroke-linecap="round"/>
<path d="M345.473 62.8616C345.473 62.8616 347.655 60.6797 349.837 62.8616" stroke="white" stroke-width="2" stroke-miterlimit="10" stroke-linecap="round"/>
<path d="M389.978 22.2849L386.196 15.0554H382.45V22.2849H380.413V5.31667H388.014C388.649 5.31091 389.278 5.43038 389.867 5.66822C390.456 5.90607 390.992 6.25764 391.444 6.70281C391.897 7.14797 392.257 7.67801 392.505 8.26259C392.752 8.84718 392.882 9.47483 392.887 10.1097C392.887 12.0661 391.636 13.7462 389.534 14.5826L388.348 15.0554L392.24 22.2849H389.978ZM382.45 13.5571H387.665C388.532 13.5324 389.356 13.1694 389.959 12.5456C390.563 11.9218 390.898 11.0867 390.894 10.2188C390.894 9.36163 390.554 8.5395 389.949 7.93274C389.343 7.32598 388.522 6.98414 387.665 6.98221H382.45V13.5571Z" fill="#2D3788"/>
<path d="M386.203 27.6088C383.793 27.6023 381.425 26.9735 379.33 25.7832C377.183 24.6053 375.417 22.8391 374.239 20.6921C373.026 18.5913 372.387 16.2083 372.387 13.7826C372.387 11.3569 373.026 8.97387 374.239 6.87313C375.433 4.71353 377.226 2.94543 379.403 1.78194C381.476 0.610508 383.818 -0.00506592 386.199 -0.00506592C388.581 -0.00506592 390.922 0.610508 392.996 1.78194C395.171 2.9419 396.961 4.71124 398.145 6.87313C399.354 8.97531 399.99 11.3577 399.99 13.7826C399.99 16.2074 399.354 18.5899 398.145 20.6921C396.966 22.8381 395.2 24.604 393.054 25.7832C390.965 26.9695 388.605 27.5982 386.203 27.6088V27.6088ZM386.203 1.37464C384.068 1.38749 381.971 1.94045 380.108 2.982C378.138 4.03419 376.514 5.63288 375.431 7.58589C374.346 9.4655 373.775 11.5977 373.775 13.768C373.775 15.9384 374.346 18.0706 375.431 19.9502C376.499 21.8916 378.096 23.4905 380.035 24.5614C381.916 25.6423 384.048 26.2111 386.217 26.2111C388.387 26.2111 390.519 25.6423 392.4 24.5614C394.344 23.4972 395.943 21.8999 397.011 19.9575C398.073 18.0776 398.634 15.9563 398.64 13.7971C398.63 11.614 398.059 9.47017 396.982 7.57134C395.905 5.61885 394.285 4.01987 392.32 2.96746C390.448 1.92918 388.344 1.38125 386.203 1.37464V1.37464Z" fill="#2D3788"/>
<path d="M64.0035 23.9868H8.72775C3.90755 23.9868 0 27.8943 0 32.7145V87.9902C0 92.8105 3.90755 96.718 8.72775 96.718H64.0035C68.8237 96.718 72.7312 92.8105 72.7312 87.9902V32.7145C72.7312 27.8943 68.8237 23.9868 64.0035 23.9868Z" fill="#2D3788"/>
<path d="M22.5466 39.464C22.5466 39.3064 22.5777 39.1503 22.638 39.0047C22.6983 38.8591 22.7867 38.7268 22.8981 38.6154C23.0096 38.5039 23.1419 38.4155 23.2875 38.3552C23.4331 38.2949 23.5891 38.2639 23.7467 38.2639H38.9621C40.8102 38.2601 42.641 38.6203 44.35 39.324C46.0589 40.0278 47.6125 41.0612 48.9221 42.3653C50.2316 43.6695 51.2715 45.2188 51.9822 46.9248C52.693 48.6308 53.0608 50.4601 53.0647 52.3083C53.0685 54.1564 52.7082 55.9873 52.0045 57.6962C51.3008 59.4051 50.2673 60.9587 48.9632 62.2683C47.6591 63.5778 46.1098 64.6177 44.4037 65.3285C42.6977 66.0393 40.8684 66.4071 39.0203 66.4109H32.3944V81.2481C32.3836 81.5629 32.2537 81.8618 32.0309 82.0846C31.8082 82.3073 31.5092 82.4373 31.1944 82.4481H23.7467C23.4284 82.4481 23.1232 82.3217 22.8981 82.0966C22.6731 81.8716 22.5466 81.5663 22.5466 81.2481V39.464ZM38.3948 57.1958C39.0513 57.1997 39.7021 57.073 40.3093 56.8231C40.9164 56.5732 41.4679 56.2051 41.9315 55.7401C42.3951 55.2752 42.7616 54.7227 43.0097 54.1148C43.2579 53.5069 43.3827 52.8557 43.3769 52.1992C43.3572 51.5659 43.2125 50.9427 42.9511 50.3655C42.6897 49.7882 42.3168 49.2684 41.8537 48.8358C41.3907 48.4032 40.8468 48.0664 40.2532 47.8448C39.6596 47.6232 39.028 47.5211 38.3948 47.5444H32.3944V57.1958H38.3948Z" fill="white"/>
<path d="M139.644 23.9868H84.3683C79.548 23.9868 75.6405 27.8943 75.6405 32.7145V87.9902C75.6405 92.8105 79.548 96.718 84.3683 96.718H139.644C144.464 96.718 148.372 92.8105 148.372 87.9902V32.7145C148.372 27.8943 144.464 23.9868 139.644 23.9868Z" fill="#2D3788"/>
<path d="M100.398 39.464C100.397 39.3061 100.428 39.1497 100.488 39.0036C100.548 38.8576 100.636 38.7249 100.748 38.6133C100.859 38.5016 100.992 38.4133 101.138 38.3533C101.284 38.2934 101.44 38.263 101.598 38.2639H109.111C109.426 38.2748 109.725 38.4047 109.948 38.6275C110.171 38.8502 110.301 39.1492 110.311 39.464V73.1677H125.33C125.649 73.1677 125.954 73.2941 126.179 73.5192C126.404 73.7442 126.531 74.0495 126.531 74.3677V81.2481C126.531 81.5664 126.404 81.8716 126.179 82.0967C125.954 82.3217 125.649 82.4482 125.33 82.4482H101.598C101.44 82.4491 101.284 82.4188 101.138 82.3588C100.992 82.2988 100.859 82.2105 100.748 82.0988C100.636 81.9872 100.548 81.8545 100.488 81.7085C100.428 81.5625 100.397 81.406 100.398 81.2481V39.464Z" fill="white"/>
<path d="M215.285 23.9868H160.009C155.189 23.9868 151.281 27.8943 151.281 32.7145V87.9902C151.281 92.8105 155.189 96.718 160.009 96.718H215.285C220.105 96.718 224.012 92.8105 224.012 87.9902V32.7145C224.012 27.8943 220.105 23.9868 215.285 23.9868Z" fill="#2D3788"/>
<path d="M166.504 80.768L186.265 38.293C186.362 38.0878 186.513 37.9122 186.701 37.7844C186.889 37.6566 187.107 37.5811 187.334 37.5657H187.967C188.193 37.5811 188.412 37.6566 188.6 37.7844C188.788 37.9122 188.938 38.0878 189.036 38.293L208.797 80.768C208.891 80.9453 208.936 81.1447 208.927 81.3454C208.918 81.5461 208.856 81.7407 208.746 81.9088C208.635 82.0769 208.482 82.2122 208.302 82.3007C208.122 82.3892 207.921 82.4276 207.72 82.4118H200.716C199.582 82.4118 199.073 82.0336 198.534 80.8335L196.265 75.8441H179.057L176.788 80.899C176.614 81.3571 176.3 81.7492 175.892 82.0205C175.484 82.2918 175.001 82.4286 174.511 82.4118H167.573C167.372 82.4276 167.172 82.3892 166.991 82.3007C166.811 82.2122 166.658 82.0769 166.548 81.9088C166.437 81.7407 166.375 81.5461 166.366 81.3454C166.357 81.1447 166.402 80.9453 166.496 80.768M192.44 67.2618L187.647 56.8467H187.581L182.846 67.2618H192.44Z" fill="white"/>
<path d="M290.925 23.9868H235.649C230.829 23.9868 226.922 27.8943 226.922 32.7145V87.9902C226.922 92.8105 230.829 96.718 235.649 96.718H290.925C295.745 96.718 299.653 92.8105 299.653 87.9902V32.7145C299.653 27.8943 295.745 23.9868 290.925 23.9868Z" fill="#2D3788"/>
<path d="M258.24 61.1742L244.29 40.0822C244.167 39.9031 244.096 39.6935 244.085 39.4765C244.075 39.2596 244.125 39.044 244.23 38.8539C244.335 38.6637 244.49 38.5065 244.679 38.3997C244.869 38.293 245.084 38.2409 245.301 38.2494H253.505C253.707 38.2547 253.904 38.3092 254.08 38.408C254.257 38.5069 254.406 38.6471 254.516 38.8167L263.287 51.7556L272.066 38.8167C272.169 38.641 272.317 38.4959 272.494 38.3962C272.672 38.2965 272.873 38.2458 273.077 38.2494H281.281C281.498 38.2409 281.713 38.293 281.902 38.3997C282.091 38.5065 282.247 38.6637 282.352 38.8539C282.457 39.044 282.507 39.2596 282.496 39.4765C282.485 39.6935 282.415 39.9031 282.292 40.0822L268.153 61.1161V81.2481C268.142 81.5629 268.012 81.8619 267.789 82.0846C267.567 82.3074 267.268 82.4373 266.953 82.4481H259.44C259.121 82.4481 258.816 82.3217 258.591 82.0967C258.366 81.8716 258.24 81.5664 258.24 81.2481V61.1742Z" fill="white"/>
<path d="M64.0035 99.6273H8.72775C3.90755 99.6273 0 103.535 0 108.355V163.631C0 168.451 3.90755 172.359 8.72775 172.359H64.0035C68.8237 172.359 72.7312 168.451 72.7312 163.631V108.355C72.7312 103.535 68.8237 99.6273 64.0035 99.6273Z" fill="#2D3788"/>
<path d="M22.5466 115.104C22.5466 114.947 22.5777 114.791 22.638 114.645C22.6983 114.5 22.7867 114.367 22.8981 114.256C23.0096 114.144 23.1419 114.056 23.2875 113.996C23.4331 113.935 23.5891 113.904 23.7467 113.904H38.9621C40.8102 113.901 42.641 114.261 44.35 114.965C46.0589 115.668 47.6125 116.702 48.9221 118.006C50.2316 119.31 51.2715 120.859 51.9822 122.565C52.693 124.271 53.0608 126.101 53.0647 127.949C53.0685 129.797 52.7082 131.628 52.0045 133.337C51.3008 135.046 50.2673 136.599 48.9632 137.909C47.6591 139.218 46.1098 140.258 44.4037 140.969C42.6977 141.68 40.8684 142.048 39.0203 142.051H32.3944V156.889C32.3836 157.203 32.2537 157.502 32.0309 157.725C31.8082 157.948 31.5092 158.078 31.1944 158.089H23.7467C23.4284 158.089 23.1232 157.962 22.8981 157.737C22.6731 157.512 22.5466 157.207 22.5466 156.889V115.104ZM38.3948 132.836C39.0513 132.84 39.7021 132.714 40.3093 132.464C40.9164 132.214 41.4679 131.846 41.9315 131.381C42.3951 130.916 42.7616 130.363 43.0097 129.755C43.2579 129.147 43.3827 128.496 43.3769 127.84C43.359 127.205 43.2157 126.58 42.9552 126.001C42.6946 125.423 42.322 124.901 41.8588 124.467C41.3956 124.033 40.851 123.695 40.2565 123.472C39.6619 123.25 39.0292 123.147 38.3948 123.17H32.3944V132.822L38.3948 132.836Z" fill="white"/>
<path d="M139.644 99.6273H84.3683C79.548 99.6273 75.6405 103.535 75.6405 108.355V163.631C75.6405 168.451 79.548 172.359 84.3683 172.359H139.644C144.464 172.359 148.372 168.451 148.372 163.631V108.355C148.372 103.535 144.464 99.6273 139.644 99.6273Z" fill="#2D3788"/>
<path d="M96.5507 115.104C96.5497 114.947 96.5799 114.791 96.6394 114.646C96.6989 114.5 96.7866 114.368 96.8975 114.256C97.0083 114.145 97.1401 114.056 97.2853 113.996C97.4305 113.936 97.5862 113.904 97.7435 113.904H116.654C120.285 113.895 123.772 115.324 126.351 117.88C128.93 120.436 130.391 123.91 130.414 127.542C130.414 133.36 126.567 138.015 121.076 140.226L129.723 156.227C129.839 156.413 129.902 156.627 129.905 156.845C129.907 157.064 129.85 157.28 129.739 157.469C129.629 157.657 129.468 157.812 129.276 157.916C129.083 158.021 128.866 158.07 128.647 158.06H120.217C120.014 158.062 119.814 158.01 119.636 157.911C119.459 157.811 119.311 157.667 119.206 157.492L110.813 140.764H106.449V156.859C106.439 157.174 106.309 157.473 106.086 157.696C105.863 157.919 105.564 158.049 105.249 158.06H97.7435C97.5862 158.06 97.4305 158.028 97.2853 157.968C97.1401 157.908 97.0083 157.819 96.8975 157.708C96.7866 157.596 96.6989 157.464 96.6394 157.318C96.5799 157.173 96.5497 157.017 96.5507 156.859V115.104ZM115.781 132.778C117.073 132.704 118.288 132.141 119.179 131.204C120.071 130.266 120.572 129.024 120.581 127.731C120.572 126.46 120.063 125.245 119.165 124.347C118.266 123.449 117.051 122.94 115.781 122.93H106.457V132.778H115.781Z" fill="white"/>
<path d="M215.285 99.6273H160.009C155.189 99.6273 151.281 103.535 151.281 108.355V163.631C151.281 168.451 155.189 172.359 160.009 172.359H215.285C220.105 172.359 224.012 168.451 224.012 163.631V108.355C224.012 103.535 220.105 99.6273 215.285 99.6273Z" fill="#2D3788"/>
<path d="M173.384 115.104C173.384 114.786 173.51 114.481 173.736 114.256C173.961 114.031 174.266 113.904 174.584 113.904H200.716C201.035 113.904 201.34 114.031 201.565 114.256C201.79 114.481 201.916 114.786 201.916 115.104V122.021C201.916 122.179 201.885 122.335 201.825 122.48C201.765 122.626 201.676 122.758 201.565 122.87C201.454 122.981 201.321 123.07 201.176 123.13C201.03 123.19 200.874 123.221 200.716 123.221H183.261V131.047H197.654C197.969 131.058 198.267 131.188 198.488 131.411C198.71 131.634 198.838 131.933 198.847 132.247V139.128C198.847 139.445 198.722 139.749 198.498 139.974C198.275 140.198 197.971 140.326 197.654 140.328H183.232V148.845H200.687C201.006 148.845 201.311 148.971 201.536 149.196C201.761 149.421 201.887 149.726 201.887 150.045V156.925C201.887 157.243 201.761 157.548 201.536 157.774C201.311 157.999 201.006 158.125 200.687 158.125H174.584C174.266 158.125 173.961 157.999 173.736 157.774C173.51 157.548 173.384 157.243 173.384 156.925V115.104Z" fill="white"/>
<path d="M290.925 99.6273H235.649C230.829 99.6273 226.922 103.535 226.922 108.355V163.631C226.922 168.451 230.829 172.359 235.649 172.359H290.925C295.745 172.359 299.653 168.451 299.653 163.631V108.355C299.653 103.535 295.745 99.6273 290.925 99.6273Z" fill="#2D3788"/>
<path d="M249.468 152.088L252.436 146.852C252.683 146.535 253.04 146.321 253.436 146.251C253.832 146.181 254.24 146.261 254.581 146.473C254.836 146.597 259.381 149.943 263.542 149.943C266.065 149.943 267.906 148.364 267.906 146.161C267.906 143.506 265.724 141.484 261.403 139.782C255.978 137.637 249.163 133.411 249.163 125.832C249.163 119.585 254.021 113.272 263.709 113.272C270.255 113.272 275.346 116.617 277.215 118.006C277.979 118.45 277.848 119.585 277.601 120.028L274.379 124.887C273.935 125.578 272.8 126.152 272.233 125.709C271.666 125.396 267.055 121.919 263.207 121.919C260.938 121.919 259.229 123.439 259.229 125.141C259.229 127.476 261.127 129.243 266.109 131.265C271.091 133.287 278.859 137.084 278.859 145.652C278.859 152.154 273.244 158.743 263.963 158.743C255.759 158.743 251.214 155.332 249.766 153.878C249.134 153.252 248.944 152.997 249.446 152.11" fill="white"/>
<path d="M366.566 99.6273H311.29C306.47 99.6273 302.562 103.535 302.562 108.355V163.631C302.562 168.451 306.47 172.359 311.29 172.359H366.566C371.386 172.359 375.293 168.451 375.293 163.631V108.355C375.293 103.535 371.386 99.6273 366.566 99.6273Z" fill="#2D3788"/>
<path d="M325.109 152.088L328.076 146.852C328.324 146.535 328.68 146.321 329.076 146.251C329.472 146.181 329.88 146.261 330.222 146.473C330.476 146.597 335.022 149.943 339.182 149.943C341.706 149.943 343.546 148.364 343.546 146.161C343.546 143.506 341.364 141.484 337.044 139.782C331.618 137.637 324.803 133.411 324.803 125.832C324.803 119.585 329.662 113.272 339.349 113.272C345.895 113.272 350.986 116.617 352.856 118.006C353.583 118.45 353.488 119.585 353.241 120.028L350.019 124.887C349.575 125.578 348.441 126.152 347.837 125.709C347.27 125.396 342.659 121.919 338.811 121.919C336.542 121.919 334.833 123.439 334.833 125.141C334.833 127.476 336.731 129.243 341.713 131.265C346.695 133.287 354.463 137.084 354.463 145.652C354.463 152.154 348.848 158.743 339.568 158.743C331.364 158.743 326.818 155.332 325.37 153.878C324.738 153.252 324.549 152.997 325.05 152.11" fill="white"/>
</g>
<defs>
<clipPath id="clip0_27_2">
<rect width="400" height="172.359" fill="white"/>
</clipPath>
</defs>
</svg>
