<svg width="24" height="24" viewBox="0 0 24 24" fill="none" xmlns="http://www.w3.org/2000/svg">
<path d="M11.9999 16.1018L8.3699 18.2938C8.26324 18.3464 8.16424 18.3678 8.0729 18.3578C7.98224 18.3471 7.8939 18.3158 7.8079 18.2638C7.72124 18.2104 7.6559 18.1351 7.6119 18.0378C7.5679 17.9404 7.5639 17.8341 7.5999 17.7188L8.5659 13.6088L5.3709 10.8388C5.2809 10.7654 5.22157 10.6778 5.1929 10.5758C5.16424 10.4738 5.17057 10.3761 5.2119 10.2828C5.25324 10.1894 5.30824 10.1128 5.3769 10.0528C5.44624 9.99477 5.53957 9.95544 5.6569 9.93477L9.8729 9.56677L11.5169 5.67477C11.5622 5.56477 11.6276 5.48544 11.7129 5.43677C11.7982 5.3881 11.8939 5.36377 11.9999 5.36377C12.1059 5.36377 12.2019 5.3881 12.2879 5.43677C12.3739 5.48544 12.4389 5.56477 12.4829 5.67477L14.1269 9.56677L18.3419 9.93477C18.4599 9.95477 18.5536 9.99444 18.6229 10.0538C18.6922 10.1124 18.7476 10.1888 18.7889 10.2828C18.8296 10.3761 18.8356 10.4738 18.8069 10.5758C18.7782 10.6778 18.7189 10.7654 18.6289 10.8388L15.4339 13.6088L16.3999 17.7188C16.4372 17.8328 16.4336 17.9388 16.3889 18.0368C16.3442 18.1348 16.2786 18.2101 16.1919 18.2628C16.1066 18.3161 16.0182 18.3478 15.9269 18.3578C15.8362 18.3678 15.7376 18.3464 15.6309 18.2938L11.9999 16.1018Z" fill="black"/>
</svg>
