<svg width="407" height="407" viewBox="0 0 407 407" fill="none" xmlns="http://www.w3.org/2000/svg">
<g clip-path="url(#clip0_57_27)">
<path d="M203.5 12.6229C165.751 12.6229 128.85 23.8168 97.4624 44.7891C66.0752 65.7613 41.6119 95.57 27.166 130.446C12.72 165.321 8.94031 203.697 16.3048 240.721C23.6693 277.745 41.8472 311.753 68.5398 338.446C95.2324 365.138 129.241 383.316 166.265 390.681C203.288 398.045 241.664 394.265 276.54 379.82C311.416 365.374 341.224 340.91 362.196 309.523C383.169 278.136 394.363 241.235 394.363 203.486C394.363 152.866 374.254 104.319 338.46 68.5253C302.667 32.7316 254.12 12.6229 203.5 12.6229V12.6229Z" fill="#2D3788"/>
<path d="M203.5 0.0144043C163.251 0.0144044 123.906 11.9498 90.44 34.3113C56.9743 56.6728 30.8912 88.4561 15.4892 125.642C0.0871545 162.827 -3.94198 203.745 3.91128 243.221C11.7645 282.696 31.1475 318.956 59.6089 347.416C88.0703 375.875 124.332 395.255 163.808 403.106C203.284 410.956 244.202 406.924 281.386 391.52C318.571 376.115 350.352 350.03 372.711 316.562C395.07 283.095 407.003 243.749 407 203.5C406.996 149.531 385.554 97.7736 347.391 59.6131C309.228 21.4525 257.469 0.0144042 203.5 0.0144043V0.0144043ZM203.5 386.873C167.236 386.873 131.786 376.119 101.633 355.972C71.4804 335.825 47.9789 307.189 34.1005 273.686C20.2221 240.182 16.5902 203.316 23.6639 167.748C30.7377 132.181 48.1994 99.5094 73.8411 73.8657C99.4827 48.222 132.153 30.7577 167.72 23.6811C203.287 16.6046 240.154 20.2336 273.658 34.1094C307.163 47.9851 335.8 71.4843 355.95 101.636C376.099 131.787 386.855 167.236 386.858 203.5C386.858 227.579 382.116 251.422 372.901 273.668C363.686 295.914 350.18 316.127 333.154 333.154C316.127 350.18 295.914 363.686 273.668 372.901C251.422 382.115 227.579 386.858 203.5 386.858V386.873Z" fill="white"/>
<path d="M221.892 73.1785C221.682 74.0221 221.815 74.9146 222.263 75.66C222.71 76.4055 223.435 76.9431 224.278 77.1548L244.521 82.1866C244.94 82.2904 245.375 82.3106 245.801 82.2461C246.228 82.1816 246.637 82.0336 247.007 81.8107C247.376 81.5878 247.698 81.2943 247.953 80.9469C248.209 80.5996 248.394 80.2052 248.497 79.7864L253.529 59.6301C253.633 59.2114 253.653 58.7764 253.589 58.3499C253.524 57.9234 253.376 57.5137 253.153 57.1444C252.93 56.7752 252.637 56.4534 252.289 56.1976C251.942 55.9419 251.548 55.7571 251.129 55.6538L230.9 50.622C230.057 50.412 229.164 50.5453 228.419 50.9925C227.673 51.4398 227.136 52.1646 226.924 53.0078L221.892 73.1785Z" fill="white"/>
<path d="M153.558 347.384C153.452 347.802 153.429 348.237 153.492 348.663C153.555 349.09 153.701 349.499 153.923 349.869C154.145 350.239 154.437 350.561 154.784 350.817C155.131 351.073 155.525 351.258 155.943 351.361L176.186 356.393C176.605 356.496 177.04 356.517 177.467 356.452C177.893 356.388 178.303 356.24 178.672 356.017C179.041 355.794 179.363 355.5 179.619 355.153C179.875 354.806 180.059 354.411 180.163 353.992L185.093 333.836C185.303 332.989 185.168 332.093 184.718 331.344C184.268 330.596 183.54 330.057 182.693 329.845L162.537 324.828C161.692 324.622 160.799 324.756 160.052 325.203C159.305 325.649 158.764 326.371 158.546 327.214L153.558 347.384Z" fill="white"/>
<path d="M284.602 99.7836C284.3 100.092 284.063 100.457 283.903 100.858C283.743 101.259 283.664 101.688 283.671 102.119C283.678 102.551 283.77 102.977 283.942 103.373C284.114 103.768 284.363 104.126 284.674 104.425L299.625 118.884C299.936 119.183 300.302 119.418 300.703 119.576C301.105 119.733 301.533 119.81 301.964 119.802C302.395 119.794 302.82 119.701 303.215 119.529C303.61 119.357 303.968 119.108 304.267 118.798L318.726 103.847C319.028 103.538 319.265 103.173 319.425 102.772C319.585 102.371 319.664 101.942 319.657 101.511C319.651 101.079 319.558 100.653 319.386 100.258C319.214 99.8619 318.965 99.5042 318.654 99.2052L303.659 84.8038C303.35 84.5029 302.984 84.2664 302.583 84.1078C302.181 83.9492 301.752 83.8717 301.321 83.8797C300.889 83.8878 300.463 83.9813 300.068 84.1548C299.673 84.3283 299.316 84.5783 299.018 84.8905L284.602 99.7836Z" fill="white"/>
<path d="M88.3029 303.125C88.0038 303.435 87.7687 303.801 87.6112 304.203C87.4537 304.604 87.3768 305.032 87.3849 305.463C87.3929 305.894 87.4858 306.319 87.6582 306.715C87.8306 307.11 88.0791 307.467 88.3896 307.766L103.341 322.225C103.651 322.524 104.017 322.759 104.419 322.917C104.82 323.074 105.248 323.151 105.679 323.143C106.11 323.135 106.535 323.042 106.931 322.87C107.326 322.698 107.683 322.449 107.982 322.139L122.441 307.188C122.742 306.878 122.979 306.512 123.137 306.111C123.296 305.709 123.373 305.28 123.365 304.849C123.357 304.417 123.264 303.992 123.09 303.596C122.917 303.201 122.667 302.844 122.354 302.546L107.404 288.087C106.788 287.471 105.953 287.126 105.083 287.126C104.212 287.126 103.378 287.471 102.762 288.087L88.3029 303.125Z" fill="white"/>
<path d="M325.565 154.266C324.729 154.508 324.022 155.071 323.6 155.833C323.177 156.594 323.073 157.491 323.31 158.329L329.093 178.298C329.21 178.712 329.407 179.1 329.674 179.438C329.941 179.776 330.272 180.058 330.649 180.267C331.025 180.477 331.439 180.61 331.867 180.659C332.295 180.708 332.728 180.672 333.142 180.553L353.125 174.769C353.961 174.527 354.668 173.964 355.09 173.203C355.513 172.442 355.617 171.544 355.38 170.706L349.597 150.724C349.355 149.888 348.791 149.182 348.029 148.762C347.267 148.342 346.37 148.241 345.534 148.482L325.565 154.266Z" fill="white"/>
<path d="M53.9331 232.187C53.5169 232.304 53.128 232.502 52.7888 232.77C52.4496 233.037 52.1669 233.37 51.9571 233.748C51.7473 234.126 51.6146 234.542 51.5666 234.971C51.5186 235.401 51.5563 235.835 51.6775 236.25L57.4612 256.219C57.5794 256.634 57.7784 257.021 58.0467 257.36C58.315 257.698 58.6474 257.98 59.0248 258.189C59.4022 258.399 59.8172 258.532 60.2461 258.581C60.675 258.63 61.1094 258.593 61.5243 258.474L81.507 252.69C82.3128 252.436 82.9894 251.881 83.3961 251.14C83.8028 250.4 83.9082 249.531 83.6903 248.714L77.9066 228.731C77.6645 227.895 77.1013 227.189 76.3401 226.766C75.5789 226.343 74.6814 226.239 73.8436 226.476L53.9331 232.187Z" fill="white"/>
<path d="M333.822 221.907C332.978 221.697 332.085 221.83 331.34 222.277C330.595 222.724 330.057 223.449 329.845 224.292L324.828 244.463C324.722 244.881 324.7 245.316 324.762 245.742C324.825 246.168 324.972 246.578 325.193 246.948C325.415 247.317 325.708 247.639 326.054 247.895C326.401 248.151 326.795 248.336 327.214 248.439L347.457 253.471C347.875 253.575 348.31 253.595 348.737 253.531C349.163 253.466 349.573 253.318 349.942 253.095C350.312 252.872 350.633 252.579 350.889 252.232C351.145 251.884 351.33 251.49 351.433 251.071L356.45 230.915C356.556 230.497 356.579 230.062 356.516 229.636C356.453 229.21 356.307 228.8 356.085 228.43C355.863 228.061 355.571 227.738 355.224 227.482C354.877 227.226 354.483 227.042 354.065 226.938L333.822 221.907Z" fill="white"/>
<path d="M59.6301 153.543C59.2123 153.437 58.7777 153.415 58.3513 153.478C57.9248 153.54 57.515 153.687 57.1454 153.909C56.7759 154.13 56.4538 154.423 56.1978 154.77C55.9418 155.116 55.7569 155.51 55.6538 155.929L50.622 176.172C50.5182 176.591 50.498 177.026 50.5625 177.452C50.627 177.879 50.7749 178.288 50.9979 178.658C51.2208 179.027 51.5143 179.349 51.8617 179.604C52.209 179.86 52.6034 180.045 53.0222 180.148L73.1784 185.093C73.5971 185.197 74.0322 185.217 74.4587 185.153C74.8852 185.088 75.2948 184.94 75.6641 184.717C76.0334 184.494 76.3552 184.201 76.6109 183.854C76.8667 183.506 77.0515 183.112 77.1547 182.693L82.1866 162.537C82.3966 161.693 82.2633 160.801 81.816 160.055C81.3688 159.31 80.644 158.772 79.8008 158.561L59.6301 153.543Z" fill="white"/>
<path d="M307.173 284.588C306.863 284.289 306.496 284.054 306.095 283.896C305.694 283.739 305.265 283.662 304.834 283.67C304.403 283.678 303.978 283.771 303.583 283.943C303.188 284.115 302.831 284.364 302.532 284.674L288.072 299.625C287.457 300.241 287.111 301.076 287.111 301.946C287.111 302.816 287.457 303.651 288.072 304.267L303.023 318.726C303.333 319.026 303.698 319.262 304.099 319.421C304.5 319.58 304.928 319.658 305.359 319.651C305.79 319.645 306.215 319.553 306.611 319.382C307.007 319.211 307.365 318.963 307.665 318.654L322.124 303.703C322.425 303.393 322.661 303.027 322.82 302.626C322.979 302.224 323.056 301.796 323.048 301.364C323.04 300.932 322.946 300.507 322.773 300.112C322.6 299.716 322.349 299.359 322.037 299.061L307.173 284.588Z" fill="white"/>
<path d="M103.876 88.3029C103.565 88.0038 103.199 87.7687 102.797 87.6112C102.396 87.4537 101.968 87.3768 101.537 87.3849C101.106 87.3929 100.681 87.4858 100.286 87.6582C99.8904 87.8306 99.5331 88.0791 99.2341 88.3896L84.7748 103.341C84.4683 103.644 84.2251 104.006 84.0591 104.404C83.8931 104.802 83.8076 105.23 83.8076 105.661C83.8076 106.093 83.8931 106.52 84.0591 106.918C84.2251 107.317 84.4683 107.678 84.7748 107.982L99.7835 122.412C100.093 122.712 100.459 122.948 100.859 123.107C101.26 123.266 101.688 123.344 102.119 123.338C102.55 123.331 102.976 123.239 103.371 123.068C103.767 122.897 104.125 122.65 104.425 122.34L118.884 107.375C119.183 107.065 119.418 106.7 119.575 106.3C119.732 105.9 119.809 105.473 119.801 105.043C119.793 104.613 119.7 104.189 119.528 103.795C119.356 103.402 119.108 103.046 118.798 102.748L103.876 88.3029Z" fill="white"/>
<path d="M252.734 325.565C252.492 324.729 251.929 324.022 251.167 323.6C250.406 323.177 249.509 323.073 248.671 323.31L228.703 329.093C228.287 329.212 227.9 329.411 227.561 329.679C227.223 329.947 226.941 330.28 226.732 330.657C226.522 331.034 226.389 331.449 226.34 331.878C226.292 332.307 226.328 332.742 226.447 333.156L232.231 353.125C232.473 353.961 233.036 354.668 233.797 355.09C234.558 355.513 235.456 355.617 236.294 355.38L256.276 349.597C257.112 349.355 257.818 348.791 258.238 348.029C258.658 347.267 258.759 346.37 258.518 345.534L252.734 325.565Z" fill="white"/>
<path d="M174.827 53.9187C174.709 53.5038 174.51 53.1163 174.242 52.7788C173.973 52.4412 173.64 52.1601 173.263 51.9517C172.885 51.7434 172.47 51.6119 172.041 51.5648C171.612 51.5177 171.178 51.556 170.764 51.6775L150.796 57.4612C150.381 57.5794 149.993 57.7784 149.655 58.0467C149.317 58.315 149.035 58.6474 148.825 59.0248C148.616 59.4022 148.483 59.8173 148.434 60.2461C148.385 60.675 148.421 61.1094 148.54 61.5243L154.324 81.4925C154.442 81.9077 154.641 82.2955 154.909 82.6336C155.178 82.9718 155.51 83.2537 155.888 83.4632C156.265 83.6727 156.68 83.8058 157.109 83.8547C157.538 83.9036 157.972 83.8674 158.387 83.7482L178.37 77.9645C179.206 77.7226 179.911 77.1588 180.331 76.3969C180.752 75.635 180.852 74.7374 180.611 73.9014L174.827 53.9187Z" fill="white"/>
<path d="M205.611 246.849H221.01C222.615 246.777 222.138 248.078 222.138 248.078C218.162 263.535 205.611 263 205.611 263C205.611 263 193.06 263.535 189.084 248.078C189.084 248.078 188.621 246.777 190.212 246.849H205.611Z" fill="white"/>
<path d="M288.376 191.499C288.376 190.733 285.209 114.474 204.642 114.474C124.075 114.474 120.923 190.733 120.909 191.354C117.655 248.541 147.658 272.326 151.794 275.377C154.541 277.98 169.593 290.559 204.642 290.559C239.692 290.559 254.744 277.98 257.491 275.377C261.626 272.37 291.615 248.541 288.376 191.499ZM251.331 267.193L250.493 267.902C250.377 268.017 237.985 280.322 204.642 280.322C171.299 280.322 158.908 268.032 158.835 267.96L157.968 267.222C156.753 266.369 128.051 245.924 131.131 191.817C131.428 186.68 132.257 181.587 133.604 176.62C144.897 181.565 212.754 208.575 231.103 152.039C231.103 152.039 239.113 190.01 275.58 176.331C276.986 181.451 277.849 186.704 278.153 192.005C281.219 245.909 252.531 266.355 251.331 267.193Z" fill="white"/>
<path d="M161.843 216.195L157.028 211.351C159.243 209.26 161.881 207.667 164.764 206.681C169.101 205.235 175.81 204.83 182.332 211.351L177.502 216.181C169.983 208.648 162.652 215.458 161.843 216.195Z" fill="white"/>
<path d="M233.503 216.195L228.703 211.351C230.914 209.262 233.547 207.67 236.424 206.681C240.848 205.235 247.485 204.83 254.006 211.351L249.177 216.181C241.644 208.648 234.327 215.458 233.503 216.195Z" fill="white"/>
</g>
<defs>
<clipPath id="clip0_57_27">
<rect width="407" height="407" fill="white"/>
</clipPath>
</defs>
</svg>
