<svg fill="none" xmlns="http://www.w3.org/2000/svg" viewBox="0 0 40 40"><rect x="1" y="1" width="38" height="38" rx="4" fill="#FFFBF5" stroke="#28377E" stroke-width="2"/><path d="M20.4 25.7h2c.2 0 .1.2.1.2-.5 1.8-2 1.8-2 1.8s-1.7 0-2.2-1.8l.1-.2h2z" fill="#28377E"/><path d="M26.3 28.3h-.1s-1.6 1.6-5.9 1.6c-4.2 0-5.8-1.5-5.8-1.5l-.1-.1s-4-2.6-3.5-9.7c0 0 0-.8.3-1.8 1.5.5 10.2 4 12.6-3.2 0 0 1 4.8 5.5 3.2l.4 1.8c.4 7-3.3 9.6-3.4 9.7zm4.7-9.8s-.4-9.7-10.7-9.7C10 8.8 9.6 18.5 9.6 18.5 9.1 26 13 29 13.6 29.3c.3.3 2.2 1.9 6.7 1.9s6.3-1.6 6.7-1.9c.5-.4 4.4-3.4 4-10.8z" fill="#28377E"/><path d="M16.9 21.8c-1-1-2-.1-2.1 0l-.5-.6c.5-.6 1.8-1.3 3 0l-.4.6zm9 0c-.9-1-1.8-.1-2 0l-.5-.6c.6-.6 2-1.3 3.2 0l-.6.6z" fill="#28377E"/></svg>