<svg fill="none" xmlns="http://www.w3.org/2000/svg" viewBox="0 0 42 43"><path d="M36.2 1H5.8A4.8 4.8 0 001 5.8v30.4C1 38.9 3.1 41 5.8 41h30.4c2.7 0 4.8-2.1 4.8-4.8V5.8C41 3.2 38.9 1 36.2 1zm-2.8 23h-.1a2.7 2.7 0 01-2.6 3.5h-.1a2.7 2.7 0 01-4 1.6 2.7 2.7 0 01-2.4 1V33l.7 4.2h-7.4L18 33v-3.7a2.7 2.7 0 01-4-1.8 2.7 2.7 0 01-4.1-2.7l-.1-.1a2.7 2.7 0 01-1.4-4.5 2.7 2.7 0 01.9-4.9l-.1-.8c0-.9.4-1.7 1-2.2-.2-.4-.3-1-.3-1.5a2.7 2.7 0 014.2-2.2c.3-1 1.3-1.8 2.5-1.8h.1a2.7 2.7 0 014.8-.9A2.7 2.7 0 0126.3 7 2.7 2.7 0 0130 9.2h.7a2.7 2.7 0 012 4.3l.6 1.2a2.7 2.7 0 011.1 4.1 2.7 2.7 0 01-1 5.2z" fill="#FFFBF5"/><path d="M33.4 24h-.1a2.7 2.7 0 01-2.6 3.5h-.1a2.7 2.7 0 01-4 1.6 2.7 2.7 0 01-2.4 1V33l.7 4.2h-7.4L18 33v-3.7a2.7 2.7 0 01-4-1.8 2.7 2.7 0 01-4.1-2.7l-.1-.1a2.7 2.7 0 01-1.4-4.5 2.7 2.7 0 01.9-4.9l-.1-.8c0-.9.4-1.7 1-2.2-.2-.4-.3-1-.3-1.5a2.7 2.7 0 014.2-2.2c.3-1 1.3-1.8 2.5-1.8h.1a2.7 2.7 0 014.8-.9A2.7 2.7 0 0126.3 7 2.7 2.7 0 0130 9.2h.7a2.7 2.7 0 012 4.3l.6 1.2a2.7 2.7 0 011.1 4.1 2.7 2.7 0 01-1 5.2m2.8-23H5.8A4.8 4.8 0 001 5.8v30.4C1 38.9 3.1 41 5.8 41h30.4c2.7 0 4.8-2.1 4.8-4.8V5.8C41 3.2 38.9 1 36.2 1z" stroke="#00A650" stroke-width="2"/><path d="M21.3 16c0-.2.1-.2.2-.3a4 4 0 011-1.2 3.4 3.4 0 012.1-.6 3.6 3.6 0 012.6 1.4l.5.9.2.7v1.5a6 6 0 01-.7 2.2 9.3 9.3 0 01-1.8 2.6l-.7.6-.7.5-.8.7-.4.3a22.7 22.7 0 01-.8.5l-.5.3-.2.2s0 0 0 0l-.7-.5a21.1 21.1 0 01-2.5-1.9l-.2-.1-.4-.4-.5-.5-.4-.5a10.5 10.5 0 01-1.7-3l-.2-.7V18v-.7-.4c.1-.4.2-.8.5-1.2a3.3 3.3 0 011.6-1.5 3.8 3.8 0 011.5-.3 3.3 3.3 0 011.9.7 3.8 3.8 0 011.1 1.3z" fill="#FFFBF5" stroke="#00A650" stroke-width="2"/></svg>