<svg fill="none" xmlns="http://www.w3.org/2000/svg" viewBox="0 0 42 43"><path d="M5.8 1A4.8 4.8 0 001 5.8v30.4C1 38.8 3 41 5.6 41h30.8a4.8 4.8 0 004.6-4.8V5.8C41 3.1 38.9 1 36.2 1H5.8z" fill="#FFFBF5" stroke="#EBAA3B" stroke-width="2"/><path d="M30.4 20.1l.8-3.8c.2-1 .3-1 .7-1.9.4-.7 1.2-1.2 1.8-1.3h1c.2.2.4.4.4.6l-.1.8-.2 1.6a11.7 11.7 0 000 2.3l-.9 6.9c-.1 1.6-.6 3.6-.6 3.6s-1 4.3-4.6 6.2h-.1a7.7 7.7 0 01-7.7-.6l-1.4-1-1.1-1s0 .1 0 0c-.7-.4-1.3-1-1.9-1.7-1-1-.6-1-2-2-2-1.5-5.8-3.4-7.7-4.8-1.1-.9-.8-1.7-.7-2 .4-.7 1.3-.9 1.8-.7l6.6 3.4h.6s0 0 0 0c.2-.2.3-.6 0-.8C13.8 22 11 19 9.9 17.7 8.6 16.3 8.2 16 7.5 15c0 0-1-1.4 0-2.2.9-.6 1.6-.3 2.3.4l5.3 5.4 2.4 2.2c.1.2.4.2.6.1.3-.1.4-.5.2-.7a1006 1006 0 01-5.6-11.7c0-.6.1-1 .6-1.3l.6-.3c1-.2 1.5.3 2 1l5.7 10.4a.6.6 0 001.2-.3c-.3-3.2-.8-7-1-10.1v-1c.3-.5.6-.9 1.2-1 .8 0 1.3.4 1.6 1.3.6 2.5 1.1 5.6 1.6 8.1l.8 3.1.8 2.3a1.3 1.3 0 002.6-.2V20z" fill="#FFFBF5" stroke="#EBAA3B" stroke-width="2"/></svg>